STARTFONT 2.1
FONT -FontForge-Helvetica-Medium-O-Normal--17-160-75-75-P-90-ISO10646-1
SIZE 16 75 75
FONTBOUNDINGBOX 20 20 -3 -4
COMMENT "Generated by fontforge, http://fontforge.sourceforge.net"
COMMENT "Copyright (c) 1985, 1987, 1989, 1990 Adobe Systems Incorporated.  All rights reserved.Helvetica is a trademark of Linotype AG and/or its subsidiaries."
STARTPROPERTIES 41
FOUNDRY "FontForge"
FAMILY_NAME "Helvetica"
WEIGHT_NAME "Medium"
SLANT "O"
SETWIDTH_NAME "Normal"
ADD_STYLE_NAME ""
PIXEL_SIZE 17
POINT_SIZE 160
RESOLUTION_X 75
RESOLUTION_Y 75
SPACING "P"
AVERAGE_WIDTH 90
CHARSET_REGISTRY "ISO10646"
CHARSET_ENCODING "1"
FONTNAME_REGISTRY ""
CHARSET_COLLECTIONS "ISO10646-1"
FONT_NAME "Helvetica-Oblique"
FACE_NAME "Helvetica Oblique"
COPYRIGHT "Copyright (c) 1985, 1987, 1989, 1990 Adobe Systems Incorporated.  All rights reserved.Helvetica is a trademark of Linotype AG and/or its subsidiaries."
FONT_VERSION "001.006"
FONT_ASCENT 14
FONT_DESCENT 3
UNDERLINE_POSITION -2
UNDERLINE_THICKNESS 1
X_HEIGHT 8
CAP_HEIGHT 12
RAW_ASCENT 800
RAW_DESCENT 200
ITALIC_ANGLE 4992
NORM_SPACE 5
RELATIVE_WEIGHT 50
RELATIVE_SETWIDTH 50
SUPERSCRIPT_X 0
SUPERSCRIPT_Y 8
SUPERSCRIPT_SIZE 11
SUBSCRIPT_X 0
SUBSCRIPT_Y 2
SUBSCRIPT_SIZE 11
FIGURE_WIDTH 9
AVG_LOWERCASE_WIDTH 85
AVG_UPPERCASE_WIDTH 111
ENDPROPERTIES
CHARS 229
STARTCHAR space
ENCODING 32
SWIDTH 278 0
DWIDTH 5 0
BBX 1 1 0 0
BITMAP
00
ENDCHAR
STARTCHAR exclam
ENCODING 33
SWIDTH 278 0
DWIDTH 5 0
BBX 1 13 2 0
BITMAP
80
80
80
80
80
80
80
80
80
00
00
80
80
ENDCHAR
STARTCHAR quotedbl
ENCODING 34
SWIDTH 355 0
DWIDTH 6 0
BBX 4 4 1 9
BITMAP
90
90
90
90
ENDCHAR
STARTCHAR numbersign
ENCODING 35
SWIDTH 556 0
DWIDTH 9 0
BBX 8 12 1 0
BITMAP
22
26
24
24
FF
24
64
FE
4C
48
48
48
ENDCHAR
STARTCHAR dollar
ENCODING 36
SWIDTH 556 0
DWIDTH 9 0
BBX 8 15 1 -2
BITMAP
10
7C
D6
93
90
D0
7C
1E
13
93
93
D6
7C
10
10
ENDCHAR
STARTCHAR percent
ENCODING 37
SWIDTH 889 0
DWIDTH 15 0
BBX 13 12 1 0
BITMAP
7040
C880
8880
8900
C900
7200
0200
0470
0488
0888
0888
1070
ENDCHAR
STARTCHAR ampersand
ENCODING 38
SWIDTH 667 0
DWIDTH 11 0
BBX 10 13 1 0
BITMAP
3C00
6600
6600
6600
2C00
3800
7800
CD80
8700
8700
8300
E780
7CC0
ENDCHAR
STARTCHAR quotesingle
ENCODING 39
SWIDTH 191 0
DWIDTH 3 0
BBX 1 4 1 9
BITMAP
80
80
80
80
ENDCHAR
STARTCHAR parenleft
ENCODING 40
SWIDTH 333 0
DWIDTH 6 0
BBX 4 17 1 -4
BITMAP
10
20
20
60
40
C0
C0
C0
C0
C0
C0
C0
40
60
20
20
10
ENDCHAR
STARTCHAR parenright
ENCODING 41
SWIDTH 333 0
DWIDTH 6 0
BBX 4 17 1 -4
BITMAP
80
80
40
40
60
20
20
20
30
20
20
20
60
60
40
C0
80
ENDCHAR
STARTCHAR asterisk
ENCODING 42
SWIDTH 389 0
DWIDTH 7 0
BBX 5 5 1 8
BITMAP
20
A8
70
70
10
ENDCHAR
STARTCHAR plus
ENCODING 43
SWIDTH 584 0
DWIDTH 10 0
BBX 8 9 1 0
BITMAP
18
18
18
18
FF
18
18
18
18
ENDCHAR
STARTCHAR comma
ENCODING 44
SWIDTH 278 0
DWIDTH 5 0
BBX 2 5 1 -3
BITMAP
C0
C0
40
40
80
ENDCHAR
STARTCHAR hyphen
ENCODING 45
SWIDTH 333 0
DWIDTH 6 0
BBX 4 2 1 4
BITMAP
F0
F0
ENDCHAR
STARTCHAR period
ENCODING 46
SWIDTH 278 0
DWIDTH 5 0
BBX 2 2 1 0
BITMAP
C0
C0
ENDCHAR
STARTCHAR slash
ENCODING 47
SWIDTH 278 0
DWIDTH 5 0
BBX 5 13 0 0
BITMAP
08
18
10
10
30
20
20
60
40
40
40
80
80
ENDCHAR
STARTCHAR zero
ENCODING 48
SWIDTH 556 0
DWIDTH 9 0
BBX 8 12 1 0
BITMAP
3C
66
C2
83
83
83
83
83
83
C2
66
3C
ENDCHAR
STARTCHAR one
ENCODING 49
SWIDTH 556 0
DWIDTH 9 0
BBX 4 12 2 0
BITMAP
10
30
F0
30
30
30
30
30
30
30
30
30
ENDCHAR
STARTCHAR two
ENCODING 50
SWIDTH 556 0
DWIDTH 9 0
BBX 9 12 0 0
BITMAP
1E00
7300
6100
4180
0180
0300
0600
1C00
3000
6000
4000
FF80
ENDCHAR
STARTCHAR three
ENCODING 51
SWIDTH 556 0
DWIDTH 9 0
BBX 8 12 1 0
BITMAP
3C
E6
C2
82
06
1C
06
03
83
83
E6
7C
ENDCHAR
STARTCHAR four
ENCODING 52
SWIDTH 556 0
DWIDTH 9 0
BBX 9 12 0 0
BITMAP
0200
0600
0A00
1A00
1200
2200
6200
C200
FF80
0200
0200
0200
ENDCHAR
STARTCHAR five
ENCODING 53
SWIDTH 556 0
DWIDTH 9 0
BBX 8 12 1 0
BITMAP
7E
40
40
C0
FC
EE
03
03
03
82
C6
7C
ENDCHAR
STARTCHAR six
ENCODING 54
SWIDTH 556 0
DWIDTH 9 0
BBX 8 12 1 0
BITMAP
3C
66
C2
80
BC
E6
C3
83
83
C3
66
3C
ENDCHAR
STARTCHAR seven
ENCODING 55
SWIDTH 556 0
DWIDTH 9 0
BBX 8 12 1 0
BITMAP
FF
03
06
04
0C
08
18
10
30
30
20
60
ENDCHAR
STARTCHAR eight
ENCODING 56
SWIDTH 556 0
DWIDTH 9 0
BBX 8 12 1 0
BITMAP
3C
66
C2
C2
C6
3C
E6
83
83
83
E6
3C
ENDCHAR
STARTCHAR nine
ENCODING 57
SWIDTH 556 0
DWIDTH 9 0
BBX 8 12 1 0
BITMAP
3C
E6
C2
83
83
C3
E7
7B
02
86
CC
78
ENDCHAR
STARTCHAR colon
ENCODING 58
SWIDTH 278 0
DWIDTH 5 0
BBX 2 9 1 0
BITMAP
C0
C0
00
00
00
00
00
C0
C0
ENDCHAR
STARTCHAR semicolon
ENCODING 59
SWIDTH 278 0
DWIDTH 5 0
BBX 2 12 1 -3
BITMAP
C0
C0
00
00
00
00
00
C0
C0
40
40
80
ENDCHAR
STARTCHAR less
ENCODING 60
SWIDTH 584 0
DWIDTH 10 0
BBX 8 8 1 0
BITMAP
03
0E
38
C0
E0
38
07
01
ENDCHAR
STARTCHAR equal
ENCODING 61
SWIDTH 584 0
DWIDTH 10 0
BBX 8 5 1 2
BITMAP
FF
00
00
00
FF
ENDCHAR
STARTCHAR greater
ENCODING 62
SWIDTH 584 0
DWIDTH 10 0
BBX 8 8 1 0
BITMAP
C0
70
1C
07
07
1C
E0
80
ENDCHAR
STARTCHAR question
ENCODING 63
SWIDTH 556 0
DWIDTH 9 0
BBX 7 13 1 0
BITMAP
3C
66
C2
82
02
06
0C
18
10
10
00
10
10
ENDCHAR
STARTCHAR at
ENCODING 64
SWIDTH 1015 0
DWIDTH 17 0
BBX 13 13 2 0
BITMAP
0F80
1860
2010
67D0
4CC8
58C8
D888
5090
59B0
6EE0
2010
1860
0F80
ENDCHAR
STARTCHAR A
ENCODING 65
SWIDTH 667 0
DWIDTH 11 0
BBX 11 12 0 0
BITMAP
0600
0E00
0B00
1B00
1900
1180
3180
3F80
20C0
60C0
4060
C060
ENDCHAR
STARTCHAR B
ENCODING 66
SWIDTH 667 0
DWIDTH 11 0
BBX 10 13 1 0
BITMAP
FF00
C380
C180
C180
C180
C300
FF00
C180
C0C0
C0C0
C080
C380
FF00
ENDCHAR
STARTCHAR C
ENCODING 67
SWIDTH 722 0
DWIDTH 12 0
BBX 11 13 1 0
BITMAP
1F00
3B80
60C0
C040
C000
8000
8000
8000
C060
C040
60C0
7B80
1F00
ENDCHAR
STARTCHAR D
ENCODING 68
SWIDTH 722 0
DWIDTH 12 0
BBX 10 13 1 0
BITMAP
FF00
C380
C0C0
C0C0
C040
C040
C040
C040
C040
C0C0
C0C0
C380
FF00
ENDCHAR
STARTCHAR E
ENCODING 69
SWIDTH 667 0
DWIDTH 11 0
BBX 9 13 1 0
BITMAP
FF80
C000
C000
C000
C000
C000
FF80
C000
C000
C000
C000
C000
FF80
ENDCHAR
STARTCHAR F
ENCODING 70
SWIDTH 611 0
DWIDTH 10 0
BBX 9 13 1 0
BITMAP
FF80
C000
C000
C000
C000
C000
FF00
C000
C000
C000
C000
C000
C000
ENDCHAR
STARTCHAR G
ENCODING 71
SWIDTH 778 0
DWIDTH 13 0
BBX 11 13 1 0
BITMAP
1F00
3BC0
60C0
C060
C000
C000
C3E0
C060
C060
C060
60E0
39A0
1F20
ENDCHAR
STARTCHAR H
ENCODING 72
SWIDTH 722 0
DWIDTH 12 0
BBX 10 13 1 0
BITMAP
C0C0
C0C0
C0C0
C0C0
C0C0
C0C0
FFC0
C0C0
C0C0
C0C0
C0C0
C0C0
C0C0
ENDCHAR
STARTCHAR I
ENCODING 73
SWIDTH 278 0
DWIDTH 5 0
BBX 1 13 2 0
BITMAP
80
80
80
80
80
80
80
80
80
80
80
80
80
ENDCHAR
STARTCHAR J
ENCODING 74
SWIDTH 500 0
DWIDTH 9 0
BBX 7 13 0 0
BITMAP
02
02
02
02
02
02
02
02
02
C2
C6
6E
3C
ENDCHAR
STARTCHAR K
ENCODING 75
SWIDTH 667 0
DWIDTH 11 0
BBX 10 13 1 0
BITMAP
C1C0
C380
C300
C600
CC00
D800
FC00
E600
C600
C300
C380
C180
C0C0
ENDCHAR
STARTCHAR L
ENCODING 76
SWIDTH 556 0
DWIDTH 9 0
BBX 8 13 1 0
BITMAP
C0
C0
C0
C0
C0
C0
C0
C0
C0
C0
C0
C0
FF
ENDCHAR
STARTCHAR M
ENCODING 77
SWIDTH 833 0
DWIDTH 14 0
BBX 12 13 1 0
BITMAP
E070
E070
E070
F0F0
D0F0
D0B0
D8B0
C9B0
C930
CD30
CF30
C630
C630
ENDCHAR
STARTCHAR N
ENCODING 78
SWIDTH 722 0
DWIDTH 12 0
BBX 10 13 1 0
BITMAP
E0C0
E0C0
F0C0
D0C0
D8C0
C8C0
CCC0
C6C0
C2C0
C3C0
C1C0
C1C0
C0C0
ENDCHAR
STARTCHAR O
ENCODING 79
SWIDTH 778 0
DWIDTH 13 0
BBX 12 13 1 0
BITMAP
1F00
3BC0
60C0
C060
C020
8020
8030
8020
C020
C060
60C0
3BC0
1F00
ENDCHAR
STARTCHAR P
ENCODING 80
SWIDTH 667 0
DWIDTH 11 0
BBX 10 13 1 0
BITMAP
FF00
C380
C080
C0C0
C080
C180
FF00
C000
C000
C000
C000
C000
C000
ENDCHAR
STARTCHAR Q
ENCODING 81
SWIDTH 778 0
DWIDTH 13 0
BBX 12 14 1 -1
BITMAP
1F00
3BC0
60C0
C060
C020
8020
8030
8020
C020
C060
61C0
3BC0
1F60
0020
ENDCHAR
STARTCHAR R
ENCODING 82
SWIDTH 722 0
DWIDTH 12 0
BBX 10 13 1 0
BITMAP
FF80
C1C0
C0C0
C0C0
C0C0
C0C0
FF80
C1C0
C0C0
C0C0
C0C0
C0C0
C0C0
ENDCHAR
STARTCHAR S
ENCODING 83
SWIDTH 667 0
DWIDTH 11 0
BBX 10 13 1 0
BITMAP
3E00
7700
C180
C080
C000
7800
3F00
0380
0080
80C0
C080
7380
3E00
ENDCHAR
STARTCHAR T
ENCODING 84
SWIDTH 611 0
DWIDTH 10 0
BBX 10 13 0 0
BITMAP
FFC0
0C00
0C00
0C00
0C00
0C00
0C00
0C00
0C00
0C00
0C00
0C00
0C00
ENDCHAR
STARTCHAR U
ENCODING 85
SWIDTH 722 0
DWIDTH 12 0
BBX 10 13 1 0
BITMAP
C0C0
C0C0
C0C0
C0C0
C0C0
C0C0
C0C0
C0C0
C0C0
C0C0
6080
7380
1F00
ENDCHAR
STARTCHAR V
ENCODING 86
SWIDTH 667 0
DWIDTH 11 0
BBX 11 13 0 0
BITMAP
C060
6040
60C0
20C0
3080
3180
1180
1900
1900
0B00
0A00
0E00
0600
ENDCHAR
STARTCHAR W
ENCODING 87
SWIDTH 944 0
DWIDTH 16 0
BBX 16 13 0 0
BITMAP
C183
4182
63C6
63C6
6246
2244
2664
366C
342C
1428
1C38
1C38
1818
ENDCHAR
STARTCHAR X
ENCODING 88
SWIDTH 667 0
DWIDTH 11 0
BBX 10 13 1 0
BITMAP
C080
6180
6300
3300
3600
1C00
0C00
1C00
3600
3300
6300
C180
C0C0
ENDCHAR
STARTCHAR Y
ENCODING 89
SWIDTH 667 0
DWIDTH 11 0
BBX 10 13 1 0
BITMAP
80C0
C180
6180
6300
3200
3600
1C00
0C00
0800
0800
0800
0800
0800
ENDCHAR
STARTCHAR Z
ENCODING 90
SWIDTH 611 0
DWIDTH 10 0
BBX 10 13 0 0
BITMAP
7FC0
00C0
0180
0300
0300
0600
0C00
1800
1800
3000
6000
E000
FFC0
ENDCHAR
STARTCHAR bracketleft
ENCODING 91
SWIDTH 278 0
DWIDTH 5 0
BBX 3 16 1 -3
BITMAP
E0
80
80
80
80
80
80
80
80
80
80
80
80
80
80
E0
ENDCHAR
STARTCHAR backslash
ENCODING 92
SWIDTH 278 0
DWIDTH 5 0
BBX 5 13 0 0
BITMAP
80
80
40
40
40
60
20
20
30
10
10
18
08
ENDCHAR
STARTCHAR bracketright
ENCODING 93
SWIDTH 278 0
DWIDTH 5 0
BBX 4 16 0 -3
BITMAP
F0
30
30
30
30
30
30
30
30
30
30
30
30
30
30
F0
ENDCHAR
STARTCHAR asciicircum
ENCODING 94
SWIDTH 469 0
DWIDTH 8 0
BBX 8 7 0 5
BITMAP
18
18
24
24
42
42
81
ENDCHAR
STARTCHAR underscore
ENCODING 95
SWIDTH 556 0
DWIDTH 9 0
BBX 9 1 0 -2
BITMAP
FF80
ENDCHAR
STARTCHAR grave
ENCODING 96
SWIDTH 333 0
DWIDTH 6 0
BBX 2 2 1 11
BITMAP
80
40
ENDCHAR
STARTCHAR a
ENCODING 97
SWIDTH 556 0
DWIDTH 9 0
BBX 8 9 1 0
BITMAP
7C
C6
82
06
7A
82
86
CE
73
ENDCHAR
STARTCHAR b
ENCODING 98
SWIDTH 556 0
DWIDTH 9 0
BBX 8 13 1 0
BITMAP
80
80
80
80
BC
E6
C3
C3
83
83
C2
E6
BC
ENDCHAR
STARTCHAR c
ENCODING 99
SWIDTH 500 0
DWIDTH 9 0
BBX 7 9 1 0
BITMAP
3C
EE
C6
80
80
80
86
CC
78
ENDCHAR
STARTCHAR d
ENCODING 100
SWIDTH 556 0
DWIDTH 9 0
BBX 7 13 1 0
BITMAP
02
02
02
02
7A
EE
82
82
82
82
C2
E6
3A
ENDCHAR
STARTCHAR e
ENCODING 101
SWIDTH 556 0
DWIDTH 9 0
BBX 8 9 1 0
BITMAP
3C
66
C2
83
FF
80
C3
E6
3C
ENDCHAR
STARTCHAR f
ENCODING 102
SWIDTH 278 0
DWIDTH 5 0
BBX 4 13 0 0
BITMAP
30
20
60
60
F0
60
60
60
60
60
60
60
60
ENDCHAR
STARTCHAR g
ENCODING 103
SWIDTH 556 0
DWIDTH 9 0
BBX 7 13 1 -4
BITMAP
7A
E6
C2
82
82
82
C2
66
3A
02
C2
C6
7C
ENDCHAR
STARTCHAR h
ENCODING 104
SWIDTH 556 0
DWIDTH 9 0
BBX 7 13 1 0
BITMAP
C0
C0
C0
C0
DC
E6
C2
C2
C2
C2
C2
C2
C2
ENDCHAR
STARTCHAR i
ENCODING 105
SWIDTH 222 0
DWIDTH 4 0
BBX 2 13 1 0
BITMAP
C0
C0
00
00
C0
C0
C0
C0
C0
C0
C0
C0
C0
ENDCHAR
STARTCHAR j
ENCODING 106
SWIDTH 222 0
DWIDTH 4 0
BBX 3 17 0 -4
BITMAP
60
60
00
00
60
60
60
60
60
60
60
60
60
60
60
60
C0
ENDCHAR
STARTCHAR k
ENCODING 107
SWIDTH 500 0
DWIDTH 9 0
BBX 7 13 1 0
BITMAP
C0
C0
C0
C0
C6
CC
D8
F0
F8
D8
CC
C6
C6
ENDCHAR
STARTCHAR l
ENCODING 108
SWIDTH 222 0
DWIDTH 4 0
BBX 2 13 1 0
BITMAP
C0
C0
C0
C0
C0
C0
C0
C0
C0
C0
C0
C0
C0
ENDCHAR
STARTCHAR m
ENCODING 109
SWIDTH 833 0
DWIDTH 14 0
BBX 12 9 1 0
BITMAP
DCE0
E730
C630
C610
C610
C610
C610
C610
C610
ENDCHAR
STARTCHAR n
ENCODING 110
SWIDTH 556 0
DWIDTH 9 0
BBX 7 9 1 0
BITMAP
DC
E6
C2
C2
C2
C2
C2
C2
C2
ENDCHAR
STARTCHAR o
ENCODING 111
SWIDTH 556 0
DWIDTH 9 0
BBX 8 9 1 0
BITMAP
3C
66
C2
83
83
83
C2
66
3C
ENDCHAR
STARTCHAR p
ENCODING 112
SWIDTH 556 0
DWIDTH 9 0
BBX 8 13 1 -4
BITMAP
BC
E6
C3
C3
83
83
C2
E6
BC
80
80
80
80
ENDCHAR
STARTCHAR q
ENCODING 113
SWIDTH 556 0
DWIDTH 9 0
BBX 7 13 1 -4
BITMAP
7A
EE
82
82
82
82
C2
E6
3A
02
02
02
02
ENDCHAR
STARTCHAR r
ENCODING 114
SWIDTH 333 0
DWIDTH 6 0
BBX 5 9 1 0
BITMAP
D8
F8
C0
C0
C0
C0
C0
C0
C0
ENDCHAR
STARTCHAR s
ENCODING 115
SWIDTH 500 0
DWIDTH 9 0
BBX 7 9 1 0
BITMAP
78
CC
86
C0
7C
06
86
C6
78
ENDCHAR
STARTCHAR t
ENCODING 116
SWIDTH 278 0
DWIDTH 5 0
BBX 4 11 0 0
BITMAP
60
60
F0
60
60
60
60
60
60
60
30
ENDCHAR
STARTCHAR u
ENCODING 117
SWIDTH 556 0
DWIDTH 9 0
BBX 7 9 1 0
BITMAP
C2
C2
C2
C2
C2
C2
C6
CE
7A
ENDCHAR
STARTCHAR v
ENCODING 118
SWIDTH 500 0
DWIDTH 9 0
BBX 8 9 0 0
BITMAP
C1
43
62
62
26
34
3C
1C
18
ENDCHAR
STARTCHAR w
ENCODING 119
SWIDTH 722 0
DWIDTH 12 0
BBX 12 9 0 0
BITMAP
C630
4630
4720
6F20
2960
2940
29C0
38C0
10C0
ENDCHAR
STARTCHAR x
ENCODING 120
SWIDTH 500 0
DWIDTH 9 0
BBX 7 9 1 0
BITMAP
C6
C4
6C
78
30
38
68
CC
86
ENDCHAR
STARTCHAR y
ENCODING 121
SWIDTH 500 0
DWIDTH 9 0
BBX 8 13 0 -4
BITMAP
C3
43
62
62
26
34
34
1C
18
18
18
10
70
ENDCHAR
STARTCHAR z
ENCODING 122
SWIDTH 500 0
DWIDTH 9 0
BBX 7 9 1 0
BITMAP
FE
06
0C
18
30
60
60
C0
FE
ENDCHAR
STARTCHAR braceleft
ENCODING 123
SWIDTH 334 0
DWIDTH 6 0
BBX 4 16 1 -3
BITMAP
30
60
40
40
40
40
40
40
80
40
40
40
40
40
60
30
ENDCHAR
STARTCHAR bar
ENCODING 124
SWIDTH 260 0
DWIDTH 4 0
BBX 1 13 2 0
BITMAP
80
80
80
80
80
80
80
80
80
80
80
80
80
ENDCHAR
STARTCHAR braceright
ENCODING 125
SWIDTH 334 0
DWIDTH 6 0
BBX 4 16 1 -3
BITMAP
C0
40
60
60
60
60
60
20
10
20
60
60
60
60
60
C0
ENDCHAR
STARTCHAR asciitilde
ENCODING 126
SWIDTH 584 0
DWIDTH 10 0
BBX 8 2 1 3
BITMAP
71
9F
ENDCHAR
STARTCHAR exclamdown
ENCODING 161
SWIDTH 333 0
DWIDTH 6 0
BBX 2 12 2 -3
BITMAP
C0
C0
00
80
80
80
C0
C0
C0
C0
C0
C0
ENDCHAR
STARTCHAR cent
ENCODING 162
SWIDTH 556 0
DWIDTH 9 0
BBX 8 12 1 -1
BITMAP
04
04
3C
6E
CB
90
90
90
D3
66
7C
20
ENDCHAR
STARTCHAR sterling
ENCODING 163
SWIDTH 556 0
DWIDTH 9 0
BBX 8 13 1 0
BITMAP
3C
66
C3
C3
C0
C0
F8
20
20
60
40
FD
8F
ENDCHAR
STARTCHAR currency
ENCODING 164
SWIDTH 556 0
DWIDTH 9 0
BBX 9 8 0 2
BITMAP
7F80
6300
4180
4080
4080
4180
6300
FF80
ENDCHAR
STARTCHAR yen
ENCODING 165
SWIDTH 556 0
DWIDTH 9 0
BBX 9 12 0 0
BITMAP
C180
6100
2300
3200
1400
7F80
0800
0800
7F80
0800
0800
0800
ENDCHAR
STARTCHAR brokenbar
ENCODING 166
SWIDTH 260 0
DWIDTH 4 0
BBX 1 13 2 0
BITMAP
80
80
80
80
80
00
00
00
80
80
80
80
80
ENDCHAR
STARTCHAR section
ENCODING 167
SWIDTH 556 0
DWIDTH 9 0
BBX 8 16 1 -3
BITMAP
3C
64
46
40
70
F8
8E
82
C3
63
3E
1C
06
C6
46
7C
ENDCHAR
STARTCHAR dieresis
ENCODING 168
SWIDTH 333 0
DWIDTH 6 0
BBX 4 2 1 10
BITMAP
B0
B0
ENDCHAR
STARTCHAR copyright
ENCODING 169
SWIDTH 737 0
DWIDTH 13 0
BBX 13 13 0 0
BITMAP
0F80
30C0
6020
4F10
9890
9018
9018
9018
9890
4F10
6020
30C0
0F80
ENDCHAR
STARTCHAR ordfeminine
ENCODING 170
SWIDTH 370 0
DWIDTH 6 0
BBX 6 8 0 5
BITMAP
78
48
78
C8
C8
7C
00
7C
ENDCHAR
STARTCHAR guillemotleft
ENCODING 171
SWIDTH 556 0
DWIDTH 9 0
BBX 6 6 2 1
BITMAP
04
4C
98
98
4C
04
ENDCHAR
STARTCHAR logicalnot
ENCODING 172
SWIDTH 584 0
DWIDTH 10 0
BBX 8 5 1 2
BITMAP
FF
01
01
01
01
ENDCHAR
STARTCHAR registered
ENCODING 174
SWIDTH 737 0
DWIDTH 13 0
BBX 13 13 0 0
BITMAP
0F80
30C0
6020
4F90
8890
8898
8F98
8918
8910
C890
6020
30C0
0F80
ENDCHAR
STARTCHAR macron
ENCODING 175
SWIDTH 333 0
DWIDTH 6 0
BBX 5 1 0 11
BITMAP
F8
ENDCHAR
STARTCHAR degree
ENCODING 176
SWIDTH 400 0
DWIDTH 7 0
BBX 5 5 1 7
BITMAP
70
88
88
88
70
ENDCHAR
STARTCHAR plusminus
ENCODING 177
SWIDTH 584 0
DWIDTH 10 0
BBX 8 8 1 0
BITMAP
18
18
18
FF
18
18
00
FF
ENDCHAR
STARTCHAR twosuperior
ENCODING 178
SWIDTH 333 0
DWIDTH 6 0
BBX 5 8 0 4
BITMAP
78
48
88
08
30
60
C0
F8
ENDCHAR
STARTCHAR threesuperior
ENCODING 179
SWIDTH 333 0
DWIDTH 6 0
BBX 6 8 0 4
BITMAP
78
C8
08
38
08
8C
C8
78
ENDCHAR
STARTCHAR acute
ENCODING 180
SWIDTH 333 0
DWIDTH 6 0
BBX 2 2 3 11
BITMAP
C0
80
ENDCHAR
STARTCHAR mu
ENCODING 181
SWIDTH 556 0
DWIDTH 9 0
BBX 7 13 1 -4
BITMAP
C2
C2
C2
C2
C2
C2
C6
CE
FA
C0
C0
C0
C0
ENDCHAR
STARTCHAR paragraph
ENCODING 182
SWIDTH 537 0
DWIDTH 9 0
BBX 8 15 0 -2
BITMAP
3F
79
F9
F9
79
79
09
09
09
09
09
09
09
09
09
ENDCHAR
STARTCHAR periodcentered
ENCODING 183
SWIDTH 278 0
DWIDTH 5 0
BBX 2 2 1 3
BITMAP
C0
C0
ENDCHAR
STARTCHAR cedilla
ENCODING 184
SWIDTH 333 0
DWIDTH 6 0
BBX 3 4 1 -4
BITMAP
40
E0
20
E0
ENDCHAR
STARTCHAR onesuperior
ENCODING 185
SWIDTH 333 0
DWIDTH 6 0
BBX 3 8 1 4
BITMAP
20
E0
20
20
20
20
20
20
ENDCHAR
STARTCHAR ordmasculine
ENCODING 186
SWIDTH 365 0
DWIDTH 6 0
BBX 6 8 0 5
BITMAP
78
4C
C4
C4
4C
78
00
7C
ENDCHAR
STARTCHAR guillemotright
ENCODING 187
SWIDTH 556 0
DWIDTH 9 0
BBX 6 5 2 2
BITMAP
10
98
4C
4C
98
ENDCHAR
STARTCHAR onequarter
ENCODING 188
SWIDTH 834 0
DWIDTH 14 0
BBX 12 12 1 0
BITMAP
2040
E080
2080
2100
2200
2200
2460
28A0
0920
1320
13F0
2020
ENDCHAR
STARTCHAR onehalf
ENCODING 189
SWIDTH 834 0
DWIDTH 14 0
BBX 12 12 1 0
BITMAP
2080
E080
2100
2200
2200
24E0
2910
2910
1030
10C0
2100
41F0
ENDCHAR
STARTCHAR threequarters
ENCODING 190
SWIDTH 834 0
DWIDTH 14 0
BBX 13 12 1 0
BITMAP
7020
8840
0840
3080
0900
8930
8A50
7490
0590
09F8
0810
1010
ENDCHAR
STARTCHAR questiondown
ENCODING 191
SWIDTH 611 0
DWIDTH 10 0
BBX 7 12 2 -3
BITMAP
30
30
00
10
30
30
60
C0
86
86
C6
7C
ENDCHAR
STARTCHAR Agrave
ENCODING 192
SWIDTH 667 0
DWIDTH 11 0
BBX 11 16 0 0
BITMAP
0800
0C00
0000
0000
0600
0E00
0B00
1B00
1900
1180
3180
3F80
20C0
60C0
4060
C060
ENDCHAR
STARTCHAR Aacute
ENCODING 193
SWIDTH 667 0
DWIDTH 11 0
BBX 11 16 0 0
BITMAP
0300
0600
0000
0000
0600
0E00
0B00
1B00
1900
1180
3180
3F80
20C0
60C0
4060
C060
ENDCHAR
STARTCHAR Acircumflex
ENCODING 194
SWIDTH 667 0
DWIDTH 11 0
BBX 11 16 0 0
BITMAP
0600
0B00
0000
0000
0600
0E00
0B00
1B00
1900
1180
3180
3F80
20C0
60C0
4060
C060
ENDCHAR
STARTCHAR Atilde
ENCODING 195
SWIDTH 667 0
DWIDTH 11 0
BBX 11 16 0 0
BITMAP
0C00
1700
0000
0000
0600
0E00
0B00
1B00
1900
1180
3180
3F80
20C0
60C0
4060
C060
ENDCHAR
STARTCHAR Adieresis
ENCODING 196
SWIDTH 667 0
DWIDTH 11 0
BBX 11 15 0 0
BITMAP
0B00
0B00
0000
0600
0E00
0B00
1B00
1900
1180
3180
3F80
20C0
60C0
4060
C060
ENDCHAR
STARTCHAR Aring
ENCODING 197
SWIDTH 667 0
DWIDTH 11 0
BBX 11 16 0 0
BITMAP
0400
0A00
0E00
0000
0600
0E00
0B00
1B00
1900
1180
3180
3F80
20C0
60C0
4060
C060
ENDCHAR
STARTCHAR AE
ENCODING 198
SWIDTH 1000 0
DWIDTH 17 0
BBX 16 13 0 0
BITMAP
07FF
0480
0C80
0880
1880
1880
10FE
3080
3F80
6080
6080
4080
C0FF
ENDCHAR
STARTCHAR Ccedilla
ENCODING 199
SWIDTH 722 0
DWIDTH 12 0
BBX 11 17 1 -4
BITMAP
1F00
3B80
60C0
C040
C000
8000
8000
8000
C060
C040
60C0
7B80
1F00
0800
0C00
0600
1C00
ENDCHAR
STARTCHAR Egrave
ENCODING 200
SWIDTH 667 0
DWIDTH 11 0
BBX 9 16 1 0
BITMAP
1000
0800
0000
FF80
C000
C000
C000
C000
C000
FF80
C000
C000
C000
C000
C000
FF80
ENDCHAR
STARTCHAR Eacute
ENCODING 201
SWIDTH 667 0
DWIDTH 11 0
BBX 9 16 1 0
BITMAP
0600
0C00
0000
FF80
C000
C000
C000
C000
C000
FF80
C000
C000
C000
C000
C000
FF80
ENDCHAR
STARTCHAR Ecircumflex
ENCODING 202
SWIDTH 667 0
DWIDTH 11 0
BBX 9 16 1 0
BITMAP
1C00
1600
0000
FF80
C000
C000
C000
C000
C000
FF80
C000
C000
C000
C000
C000
FF80
ENDCHAR
STARTCHAR Edieresis
ENCODING 203
SWIDTH 667 0
DWIDTH 11 0
BBX 9 16 1 0
BITMAP
1600
1600
0000
FF80
C000
C000
C000
C000
C000
FF80
C000
C000
C000
C000
C000
FF80
ENDCHAR
STARTCHAR Igrave
ENCODING 204
SWIDTH 278 0
DWIDTH 5 0
BBX 3 16 0 0
BITMAP
C0
20
00
20
20
20
20
20
20
20
20
20
20
20
20
20
ENDCHAR
STARTCHAR Iacute
ENCODING 205
SWIDTH 278 0
DWIDTH 5 0
BBX 2 16 2 0
BITMAP
40
80
00
80
80
80
80
80
80
80
80
80
80
80
80
80
ENDCHAR
STARTCHAR Icircumflex
ENCODING 206
SWIDTH 278 0
DWIDTH 5 0
BBX 4 16 0 0
BITMAP
70
D0
00
20
20
20
20
20
20
20
20
20
20
20
20
20
ENDCHAR
STARTCHAR Idieresis
ENCODING 207
SWIDTH 278 0
DWIDTH 5 0
BBX 5 16 0 0
BITMAP
D8
D8
00
20
20
20
20
20
20
20
20
20
20
20
20
20
ENDCHAR
STARTCHAR Eth
ENCODING 208
SWIDTH 722 0
DWIDTH 12 0
BBX 11 13 0 0
BITMAP
7F80
61C0
6060
6060
6020
6020
FC20
6020
6020
6060
6040
61C0
7F80
ENDCHAR
STARTCHAR Ntilde
ENCODING 209
SWIDTH 722 0
DWIDTH 12 0
BBX 10 16 1 0
BITMAP
1D00
0600
0000
E0C0
E0C0
F0C0
D0C0
D8C0
C8C0
CCC0
C6C0
C2C0
C3C0
C1C0
C1C0
C0C0
ENDCHAR
STARTCHAR Ograve
ENCODING 210
SWIDTH 778 0
DWIDTH 13 0
BBX 12 16 1 0
BITMAP
0800
0400
0000
1F00
3BC0
60C0
C060
C020
8020
8030
8020
C020
C060
60C0
3BC0
1F00
ENDCHAR
STARTCHAR Oacute
ENCODING 211
SWIDTH 778 0
DWIDTH 13 0
BBX 12 16 1 0
BITMAP
0300
0400
0000
1F00
3BC0
60C0
C060
C020
8020
8030
8020
C020
C060
60C0
3BC0
1F00
ENDCHAR
STARTCHAR Ocircumflex
ENCODING 212
SWIDTH 778 0
DWIDTH 13 0
BBX 12 16 1 0
BITMAP
0E00
1B00
0000
1F00
3BC0
60C0
C060
C020
8020
8030
8020
C020
C060
60C0
3BC0
1F00
ENDCHAR
STARTCHAR Otilde
ENCODING 213
SWIDTH 778 0
DWIDTH 13 0
BBX 12 16 1 0
BITMAP
1D00
1700
0000
1F00
3BC0
60C0
C060
C020
8020
8030
8020
C020
C060
60C0
3BC0
1F00
ENDCHAR
STARTCHAR Odieresis
ENCODING 214
SWIDTH 778 0
DWIDTH 13 0
BBX 12 16 1 0
BITMAP
1B00
1B00
0000
1F00
3BC0
60C0
C060
C020
8020
8030
8020
C020
C060
60C0
3BC0
1F00
ENDCHAR
STARTCHAR multiply
ENCODING 215
SWIDTH 584 0
DWIDTH 10 0
BBX 8 9 1 0
BITMAP
80
C3
66
3C
18
3C
66
C3
81
ENDCHAR
STARTCHAR Oslash
ENCODING 216
SWIDTH 778 0
DWIDTH 13 0
BBX 12 13 1 0
BITMAP
1F10
3BE0
60C0
C0E0
C120
8220
8430
8820
D020
E060
60C0
7BC0
9F00
ENDCHAR
STARTCHAR Ugrave
ENCODING 217
SWIDTH 722 0
DWIDTH 12 0
BBX 10 16 1 0
BITMAP
1800
0C00
0000
C0C0
C0C0
C0C0
C0C0
C0C0
C0C0
C0C0
C0C0
C0C0
C0C0
6080
7380
1F00
ENDCHAR
STARTCHAR Uacute
ENCODING 218
SWIDTH 722 0
DWIDTH 12 0
BBX 10 16 1 0
BITMAP
0600
0400
0000
C0C0
C0C0
C0C0
C0C0
C0C0
C0C0
C0C0
C0C0
C0C0
C0C0
6080
7380
1F00
ENDCHAR
STARTCHAR Ucircumflex
ENCODING 219
SWIDTH 722 0
DWIDTH 12 0
BBX 10 16 1 0
BITMAP
0E00
1200
0000
C0C0
C0C0
C0C0
C0C0
C0C0
C0C0
C0C0
C0C0
C0C0
C0C0
6080
7380
1F00
ENDCHAR
STARTCHAR Udieresis
ENCODING 220
SWIDTH 722 0
DWIDTH 12 0
BBX 10 16 1 0
BITMAP
1A00
1A00
0000
C0C0
C0C0
C0C0
C0C0
C0C0
C0C0
C0C0
C0C0
C0C0
C0C0
6080
7380
1F00
ENDCHAR
STARTCHAR Yacute
ENCODING 221
SWIDTH 667 0
DWIDTH 11 0
BBX 10 16 1 0
BITMAP
0600
0C00
0000
80C0
C180
6180
6300
3200
3600
1C00
0C00
0800
0800
0800
0800
0800
ENDCHAR
STARTCHAR Thorn
ENCODING 222
SWIDTH 667 0
DWIDTH 11 0
BBX 10 13 1 0
BITMAP
C000
C000
FF00
C380
C080
C0C0
C080
C180
FF00
C000
C000
C000
C000
ENDCHAR
STARTCHAR germandbls
ENCODING 223
SWIDTH 611 0
DWIDTH 10 0
BBX 9 13 1 0
BITMAP
3C00
6700
C100
C100
C300
CE00
C300
C180
C180
C180
C100
C700
CE00
ENDCHAR
STARTCHAR agrave
ENCODING 224
SWIDTH 556 0
DWIDTH 9 0
BBX 8 13 1 0
BITMAP
20
10
00
00
7C
C6
82
06
7A
82
86
CE
73
ENDCHAR
STARTCHAR aacute
ENCODING 225
SWIDTH 556 0
DWIDTH 9 0
BBX 8 13 1 0
BITMAP
0C
08
10
00
7C
C6
82
06
7A
82
86
CE
73
ENDCHAR
STARTCHAR acircumflex
ENCODING 226
SWIDTH 556 0
DWIDTH 9 0
BBX 8 13 1 0
BITMAP
18
2C
00
00
7C
C6
82
06
7A
82
86
CE
73
ENDCHAR
STARTCHAR atilde
ENCODING 227
SWIDTH 556 0
DWIDTH 9 0
BBX 8 13 1 0
BITMAP
74
5C
00
00
7C
C6
82
06
7A
82
86
CE
73
ENDCHAR
STARTCHAR adieresis
ENCODING 228
SWIDTH 556 0
DWIDTH 9 0
BBX 8 12 1 0
BITMAP
2C
2C
00
7C
C6
82
06
7A
82
86
CE
73
ENDCHAR
STARTCHAR aring
ENCODING 229
SWIDTH 556 0
DWIDTH 9 0
BBX 8 13 1 0
BITMAP
10
28
28
18
7C
C6
82
06
7A
82
86
CE
73
ENDCHAR
STARTCHAR ae
ENCODING 230
SWIDTH 889 0
DWIDTH 15 0
BBX 13 9 1 0
BITMAP
7CE0
C7B8
8208
0608
7BF8
C200
8608
CF18
79F0
ENDCHAR
STARTCHAR ccedilla
ENCODING 231
SWIDTH 500 0
DWIDTH 9 0
BBX 7 13 1 -4
BITMAP
3C
EE
C6
80
80
80
86
CC
78
20
38
08
70
ENDCHAR
STARTCHAR egrave
ENCODING 232
SWIDTH 556 0
DWIDTH 9 0
BBX 8 13 1 0
BITMAP
20
10
00
00
3C
66
C2
83
FF
80
C3
E6
3C
ENDCHAR
STARTCHAR eacute
ENCODING 233
SWIDTH 556 0
DWIDTH 9 0
BBX 8 13 1 0
BITMAP
0C
08
10
00
3C
66
C2
83
FF
80
C3
E6
3C
ENDCHAR
STARTCHAR ecircumflex
ENCODING 234
SWIDTH 556 0
DWIDTH 9 0
BBX 8 13 1 0
BITMAP
18
2C
00
00
3C
66
C2
83
FF
80
C3
E6
3C
ENDCHAR
STARTCHAR edieresis
ENCODING 235
SWIDTH 556 0
DWIDTH 9 0
BBX 8 12 1 0
BITMAP
2C
2C
00
3C
66
C2
83
FF
80
C3
E6
3C
ENDCHAR
STARTCHAR igrave
ENCODING 236
SWIDTH 278 0
DWIDTH 5 0
BBX 3 13 0 0
BITMAP
C0
60
00
00
20
20
20
20
20
20
20
20
20
ENDCHAR
STARTCHAR iacute
ENCODING 237
SWIDTH 278 0
DWIDTH 5 0
BBX 2 13 2 0
BITMAP
40
C0
00
00
80
80
80
80
80
80
80
80
80
ENDCHAR
STARTCHAR icircumflex
ENCODING 238
SWIDTH 278 0
DWIDTH 5 0
BBX 4 13 0 0
BITMAP
70
50
80
00
20
20
20
20
20
20
20
20
20
ENDCHAR
STARTCHAR idieresis
ENCODING 239
SWIDTH 278 0
DWIDTH 5 0
BBX 5 12 0 0
BITMAP
D8
D8
00
20
20
20
20
20
20
20
20
20
ENDCHAR
STARTCHAR eth
ENCODING 240
SWIDTH 556 0
DWIDTH 9 0
BBX 8 13 1 0
BITMAP
36
1C
3C
06
3A
66
C3
83
83
83
C2
66
3C
ENDCHAR
STARTCHAR ntilde
ENCODING 241
SWIDTH 556 0
DWIDTH 9 0
BBX 7 13 1 0
BITMAP
74
5C
00
00
DC
E6
C2
C2
C2
C2
C2
C2
C2
ENDCHAR
STARTCHAR ograve
ENCODING 242
SWIDTH 556 0
DWIDTH 9 0
BBX 8 13 1 0
BITMAP
20
10
00
00
3C
66
C2
83
83
83
C2
66
3C
ENDCHAR
STARTCHAR oacute
ENCODING 243
SWIDTH 556 0
DWIDTH 9 0
BBX 8 13 1 0
BITMAP
0C
08
10
00
3C
66
C2
83
83
83
C2
66
3C
ENDCHAR
STARTCHAR ocircumflex
ENCODING 244
SWIDTH 556 0
DWIDTH 9 0
BBX 8 13 1 0
BITMAP
18
2C
00
00
3C
66
C2
83
83
83
C2
66
3C
ENDCHAR
STARTCHAR otilde
ENCODING 245
SWIDTH 556 0
DWIDTH 9 0
BBX 8 13 1 0
BITMAP
32
4C
00
00
3C
66
C2
83
83
83
C2
66
3C
ENDCHAR
STARTCHAR odieresis
ENCODING 246
SWIDTH 556 0
DWIDTH 9 0
BBX 8 12 1 0
BITMAP
2C
2C
00
3C
66
C2
83
83
83
C2
66
3C
ENDCHAR
STARTCHAR divide
ENCODING 247
SWIDTH 584 0
DWIDTH 10 0
BBX 8 9 1 0
BITMAP
18
18
00
00
FF
00
00
18
18
ENDCHAR
STARTCHAR oslash
ENCODING 248
SWIDTH 611 0
DWIDTH 10 0
BBX 8 9 1 0
BITMAP
3D
66
C6
8B
93
A3
C2
66
BC
ENDCHAR
STARTCHAR ugrave
ENCODING 249
SWIDTH 556 0
DWIDTH 9 0
BBX 7 13 1 0
BITMAP
20
10
00
00
C2
C2
C2
C2
C2
C2
C6
CE
7A
ENDCHAR
STARTCHAR uacute
ENCODING 250
SWIDTH 556 0
DWIDTH 9 0
BBX 7 13 1 0
BITMAP
0C
08
10
00
C2
C2
C2
C2
C2
C2
C6
CE
7A
ENDCHAR
STARTCHAR ucircumflex
ENCODING 251
SWIDTH 556 0
DWIDTH 9 0
BBX 7 13 1 0
BITMAP
18
2C
00
00
C2
C2
C2
C2
C2
C2
C6
CE
7A
ENDCHAR
STARTCHAR udieresis
ENCODING 252
SWIDTH 556 0
DWIDTH 9 0
BBX 7 12 1 0
BITMAP
2C
2C
00
C2
C2
C2
C2
C2
C2
C6
CE
7A
ENDCHAR
STARTCHAR yacute
ENCODING 253
SWIDTH 500 0
DWIDTH 9 0
BBX 8 17 0 -4
BITMAP
04
08
00
00
C3
43
62
62
26
34
34
1C
18
18
18
10
70
ENDCHAR
STARTCHAR thorn
ENCODING 254
SWIDTH 556 0
DWIDTH 9 0
BBX 8 17 1 -4
BITMAP
80
80
80
80
BC
E6
C3
C3
83
83
C2
E6
BC
80
80
80
80
ENDCHAR
STARTCHAR ydieresis
ENCODING 255
SWIDTH 500 0
DWIDTH 9 0
BBX 8 16 0 -4
BITMAP
34
34
00
C3
43
62
62
26
34
34
1C
18
18
18
10
70
ENDCHAR
STARTCHAR dotlessi
ENCODING 305
SWIDTH 278 0
DWIDTH 5 0
BBX 1 9 2 0
BITMAP
80
80
80
80
80
80
80
80
80
ENDCHAR
STARTCHAR Lslash
ENCODING 321
SWIDTH 556 0
DWIDTH 9 0
BBX 9 13 0 0
BITMAP
6000
6000
6000
6000
7800
7000
E000
6000
6000
6000
6000
6000
7F80
ENDCHAR
STARTCHAR lslash
ENCODING 322
SWIDTH 222 0
DWIDTH 4 0
BBX 4 13 0 0
BITMAP
60
60
60
60
70
60
E0
60
60
60
60
60
60
ENDCHAR
STARTCHAR OE
ENCODING 338
SWIDTH 1000 0
DWIDTH 17 0
BBX 15 13 1 0
BITMAP
1EFE
7380
4180
C080
C080
8080
80FE
8080
8080
C080
C180
7380
3EFE
ENDCHAR
STARTCHAR oe
ENCODING 339
SWIDTH 944 0
DWIDTH 16 0
BBX 14 9 1 0
BITMAP
3CF0
6798
C30C
8304
83FC
8300
C304
679C
3CF0
ENDCHAR
STARTCHAR Scaron
ENCODING 352
SWIDTH 667 0
DWIDTH 11 0
BBX 10 16 1 0
BITMAP
1600
0C00
0000
3E00
7700
C180
C080
C000
7800
3F00
0380
0080
80C0
C080
7380
3E00
ENDCHAR
STARTCHAR scaron
ENCODING 353
SWIDTH 500 0
DWIDTH 9 0
BBX 7 13 1 0
BITMAP
48
38
00
00
78
CC
86
C0
7C
06
86
C6
78
ENDCHAR
STARTCHAR Ydieresis
ENCODING 376
SWIDTH 667 0
DWIDTH 11 0
BBX 10 16 1 0
BITMAP
1600
1600
0000
80C0
C180
6180
6300
3200
3600
1C00
0C00
0800
0800
0800
0800
0800
ENDCHAR
STARTCHAR Zcaron
ENCODING 381
SWIDTH 611 0
DWIDTH 10 0
BBX 10 16 0 0
BITMAP
1A00
0C00
0000
7FC0
00C0
0180
0300
0300
0600
0C00
1800
1800
3000
6000
E000
FFC0
ENDCHAR
STARTCHAR zcaron
ENCODING 382
SWIDTH 500 0
DWIDTH 9 0
BBX 7 13 1 0
BITMAP
48
38
00
00
FE
06
0C
18
30
60
60
C0
FE
ENDCHAR
STARTCHAR florin
ENCODING 402
SWIDTH 556 0
DWIDTH 9 0
BBX 8 17 0 -4
BITMAP
03
06
04
0C
0C
3F
08
08
18
18
18
10
10
10
30
20
C0
ENDCHAR
STARTCHAR circumflex
ENCODING 710
SWIDTH 333 0
DWIDTH 6 0
BBX 4 2 1 11
BITMAP
60
B0
ENDCHAR
STARTCHAR caron
ENCODING 711
SWIDTH 333 0
DWIDTH 6 0
BBX 4 2 1 11
BITMAP
90
E0
ENDCHAR
STARTCHAR breve
ENCODING 728
SWIDTH 333 0
DWIDTH 6 0
BBX 5 2 0 11
BITMAP
88
78
ENDCHAR
STARTCHAR dotaccent
ENCODING 729
SWIDTH 333 0
DWIDTH 6 0
BBX 2 2 2 10
BITMAP
C0
C0
ENDCHAR
STARTCHAR ring
ENCODING 730
SWIDTH 333 0
DWIDTH 6 0
BBX 3 3 1 10
BITMAP
60
A0
60
ENDCHAR
STARTCHAR ogonek
ENCODING 731
SWIDTH 333 0
DWIDTH 6 0
BBX 4 4 1 -4
BITMAP
60
C0
C0
70
ENDCHAR
STARTCHAR tilde
ENCODING 732
SWIDTH 333 0
DWIDTH 6 0
BBX 6 2 0 11
BITMAP
64
98
ENDCHAR
STARTCHAR hungarumlaut
ENCODING 733
SWIDTH 333 0
DWIDTH 6 0
BBX 5 2 1 11
BITMAP
48
98
ENDCHAR
STARTCHAR endash
ENCODING 8211
SWIDTH 556 0
DWIDTH 9 0
BBX 9 1 0 4
BITMAP
FF80
ENDCHAR
STARTCHAR emdash
ENCODING 8212
SWIDTH 1000 0
DWIDTH 17 0
BBX 17 1 0 4
BITMAP
FFFF80
ENDCHAR
STARTCHAR quoteleft
ENCODING 8216
SWIDTH 222 0
DWIDTH 4 0
BBX 2 4 1 9
BITMAP
40
80
80
C0
ENDCHAR
STARTCHAR quoteright
ENCODING 8217
SWIDTH 222 0
DWIDTH 4 0
BBX 2 4 1 9
BITMAP
C0
C0
40
80
ENDCHAR
STARTCHAR quotesinglbase
ENCODING 8218
SWIDTH 222 0
DWIDTH 4 0
BBX 2 4 1 -2
BITMAP
C0
C0
40
80
ENDCHAR
STARTCHAR quotedblleft
ENCODING 8220
SWIDTH 333 0
DWIDTH 6 0
BBX 4 4 1 9
BITMAP
90
A0
A0
B0
ENDCHAR
STARTCHAR quotedblright
ENCODING 8221
SWIDTH 333 0
DWIDTH 6 0
BBX 5 4 0 9
BITMAP
D8
D8
48
58
ENDCHAR
STARTCHAR quotedblbase
ENCODING 8222
SWIDTH 333 0
DWIDTH 6 0
BBX 5 5 0 -3
BITMAP
D8
D8
48
58
80
ENDCHAR
STARTCHAR dagger
ENCODING 8224
SWIDTH 556 0
DWIDTH 9 0
BBX 8 15 1 -2
BITMAP
18
18
18
18
FF
18
18
18
18
18
18
18
18
18
18
ENDCHAR
STARTCHAR daggerdbl
ENCODING 8225
SWIDTH 556 0
DWIDTH 9 0
BBX 8 16 1 -3
BITMAP
18
18
18
18
FF
18
18
18
18
18
18
FF
18
18
18
18
ENDCHAR
STARTCHAR bullet
ENCODING 8226
SWIDTH 350 0
DWIDTH 6 0
BBX 6 5 0 4
BITMAP
78
78
FC
FC
78
ENDCHAR
STARTCHAR ellipsis
ENCODING 8230
SWIDTH 1000 0
DWIDTH 17 0
BBX 13 2 2 0
BITMAP
C218
C218
ENDCHAR
STARTCHAR perthousand
ENCODING 8240
SWIDTH 1000 0
DWIDTH 17 0
BBX 17 12 0 0
BITMAP
708000
C90000
890000
CA0000
720000
040000
040000
0BC700
0A6980
142880
224980
23C700
ENDCHAR
STARTCHAR guilsinglleft
ENCODING 8249
SWIDTH 333 0
DWIDTH 6 0
BBX 3 4 1 2
BITMAP
60
C0
C0
60
ENDCHAR
STARTCHAR guilsinglright
ENCODING 8250
SWIDTH 333 0
DWIDTH 6 0
BBX 3 6 1 1
BITMAP
80
C0
20
20
C0
80
ENDCHAR
STARTCHAR fraction
ENCODING 8260
SWIDTH 167 0
DWIDTH 3 0
BBX 8 12 -3 0
BITMAP
01
01
02
04
04
08
08
10
20
20
40
80
ENDCHAR
STARTCHAR trademark
ENCODING 8482
SWIDTH 1000 0
DWIDTH 17 0
BBX 14 7 1 6
BITMAP
F98C
218C
219C
2154
2154
2164
2124
ENDCHAR
STARTCHAR minus
ENCODING 8722
SWIDTH 584 0
DWIDTH 10 0
BBX 8 1 1 4
BITMAP
FF
ENDCHAR
STARTCHAR fi
ENCODING 64257
SWIDTH 500 0
DWIDTH 9 0
BBX 7 13 0 0
BITMAP
32
22
60
60
F2
62
62
62
62
62
62
62
62
ENDCHAR
STARTCHAR fl
ENCODING 64258
SWIDTH 500 0
DWIDTH 9 0
BBX 7 13 0 0
BITMAP
32
22
62
62
F2
62
62
62
62
62
62
62
62
ENDCHAR
STARTCHAR .notdef
ENCODING -1
SWIDTH 278 0
DWIDTH 5 0
BBX 1 1 0 0
BITMAP
00
ENDCHAR
ENDFONT
